<svg width="32" height="32" viewBox="0 0 32 32" fill="none" xmlns="http://www.w3.org/2000/svg">
<rect width="32" height="32" rx="16" fill="#CACACA"/>
<g clip-path="url(#clip0_1_817)">
<path d="M6.66669 9.15691C6.66669 8.5563 6.8769 8.0608 7.29732 7.67042C7.71773 7.28003 8.26429 7.08484 8.93696 7.08484C9.59762 7.08484 10.1321 7.27702 10.5406 7.66142C10.961 8.05781 11.1712 8.57432 11.1712 9.21096C11.1712 9.78754 10.967 10.268 10.5586 10.6524C10.1382 11.0488 9.58561 11.247 8.90092 11.247H8.8829C8.22224 11.247 7.68771 11.0488 7.2793 10.6524C6.87089 10.256 6.66669 9.75751 6.66669 9.15691ZM6.90092 24.9227V12.8866H10.9009V24.9227H6.90092ZM13.1171 24.9227H17.1171V18.202C17.1171 17.7815 17.1652 17.4572 17.2613 17.229C17.4294 16.8206 17.6847 16.4752 18.027 16.1929C18.3694 15.9107 18.7988 15.7695 19.3153 15.7695C20.6607 15.7695 21.3334 16.6764 21.3334 18.4902V24.9227H25.3334V18.0218C25.3334 16.244 24.9129 14.8956 24.0721 13.9767C23.2312 13.0578 22.1201 12.5984 20.7388 12.5984C19.1892 12.5984 17.982 13.265 17.1171 14.5984V14.6344H17.0991L17.1171 14.5984V12.8866H13.1171C13.1412 13.271 13.1532 14.4662 13.1532 16.4722C13.1532 18.4782 13.1412 21.295 13.1171 24.9227Z" fill="white"/>
</g>
<defs>
<clipPath id="clip0_1_817">
<rect x="6.66669" y="6.66669" width="18.6667" height="18.6667" fill="white"/>
</clipPath>
</defs>
</svg>
