<svg width="102" height="33" viewBox="0 0 102 33" fill="none" xmlns="http://www.w3.org/2000/svg">
<path d="M0 7.77765C0.104616 7.78134 0.209233 7.67378 0.25712 7.84101C0.356578 8.36925 0.00589554 8.7936 0.105354 9.32184L0.274063 9.36015C0.20039 9.76903 0.107564 10.1941 0.0287335 10.6295C0.0532911 11.4296 0.0935645 12.2263 0.149556 13.0195C0.211441 12.9989 0.26817 12.9893 0.291009 13.0681C0.335949 13.3982 0.277012 13.8549 0.25933 14.3287C0.268908 14.3979 0.279221 14.4679 0.288061 14.5371C0.321106 14.5779 0.368621 14.6043 0.420674 14.6108C0.41478 14.8252 0.398571 15.0153 0.38089 15.1921C0.713155 17.5157 1.10436 19.8755 1.49114 22.4334C1.64659 22.9742 1.80204 23.5157 1.8735 24.0365C1.93834 24.8086 1.82783 25.7944 1.80867 26.5473C2.40542 26.4317 2.6979 28.2668 3.30129 27.9007C3.28876 28.4024 3.26887 29.1531 3.43758 29.1944C3.94371 29.3115 4.52794 29.6976 4.83294 31.0303C4.90662 31.5519 4.69149 32.3564 4.7939 32.5369C4.95598 32.8265 5.15047 31.8606 5.31329 32.1501C5.496 28.2735 5.27646 24.5405 5.28161 20.6373C5.01713 19.3112 4.90072 10.3474 5.01786 8.04582C5.01786 7.97583 5.01344 7.90585 5.01049 7.83659C5.04291 6.58047 4.99797 5.05544 4.77032 3.99307C4.63034 3.50536 4.45942 3.01028 4.29439 2.51961C4.19567 2.74874 4.09769 2.96165 3.9997 3.14583C4.01296 2.64338 4.02549 2.14094 3.91793 1.94791C3.66228 0.878919 3.36391 1.48451 2.96018 1.8956C2.78263 2.1903 2.5093 1.79173 2.32806 2.25513C2.33691 1.92139 2.34059 1.75342 2.35017 1.4182C2.18072 1.37989 2.43636 2.44963 2.15935 2.21682C2.22418 1.89487 2.12031 1.53387 2.12915 1.20013C1.90002 1.3158 2.04295 2.35827 1.81751 2.30523C1.7652 2.12473 2.12473 1.3659 1.8433 1.30106C1.78731 1.28854 1.77847 1.62301 1.77404 1.79025C1.68785 0.758831 1.41968 0.193024 1.11099 1.13309C1.11909 0.806719 1.23844 0.344789 1.20013 0L1.19571 0C1.18613 0.172395 1.12793 0.469297 1.12204 0.62843L1.13751 0.0390466C1.09773 0.0699892 1.05942 0.105352 1.02037 0.142188C0.982826 0.288076 0.96036 0.437432 0.953328 0.587909C0.953328 0.458244 0.959959 0.327844 0.963643 0.197443C0.867048 0.301285 0.778853 0.412635 0.699893 0.530444C0.518657 0.993847 0.252698 1.43809 0.246067 1.68858C0.112719 3.71901 0.0184182 5.75386 0 7.77765Z" fill="url(#paint0_linear_315_43)" fill-opacity="0.8"/>
<path d="M7.49902 7.77765C7.60364 7.78134 7.70825 7.67378 7.75688 7.84101C7.8556 8.36925 7.50492 8.7936 7.60438 9.32184L7.77382 9.36015C7.70015 9.76903 7.60732 10.1941 7.52776 10.6295C7.55231 11.4296 7.59283 12.2263 7.64931 13.0195C7.7112 12.9989 7.76793 12.9893 7.79003 13.0681C7.83571 13.3982 7.77604 13.8549 7.75835 14.3287C7.76867 14.3979 7.77824 14.4679 7.78782 14.5371C7.82059 14.5778 7.86786 14.6043 7.9197 14.6108C7.91454 14.8252 7.89833 15.0153 7.87991 15.1921C8.21291 17.5157 8.60412 19.8755 8.99016 22.4334C9.14635 22.9742 9.3018 23.5157 9.37327 24.0365C9.4381 24.8086 9.32759 25.7944 9.30769 26.5473C9.90518 26.4317 10.1969 28.2668 10.801 27.9007C10.7878 28.4024 10.7679 29.1531 10.9373 29.1944C11.4435 29.3115 12.027 29.6976 12.332 31.0303C12.4056 31.5519 12.1905 32.3564 12.2929 32.5369C12.455 32.8265 12.6502 31.8606 12.8086 32.1501C12.9921 28.2735 12.7725 24.5405 12.777 20.6373C12.5125 19.3112 12.3961 10.3474 12.5132 8.04582C12.5132 7.97583 12.5088 7.90585 12.5058 7.83659C12.539 6.58047 12.4933 5.05544 12.2664 3.99307C12.1257 3.50536 11.9548 3.01028 11.7897 2.51961C11.6918 2.74874 11.593 2.96165 11.495 3.14583C11.5076 2.64338 11.5208 2.14094 11.4125 1.94791C11.1576 0.878919 10.8585 1.48451 10.4548 1.8956C10.2772 2.1903 10.0046 1.79173 9.82341 2.25513C9.83151 1.92139 9.83593 1.75342 9.84477 1.4182C9.67606 1.37989 9.93097 2.44963 9.65396 2.21682C9.71879 1.89487 9.61565 1.53387 9.62449 1.20013C9.39463 1.3158 9.53755 2.35827 9.31212 2.30523C9.26054 2.12473 9.62007 1.3659 9.33864 1.30106C9.28191 1.28854 9.27381 1.62301 9.26939 1.79025C9.18245 0.758831 8.91428 0.193024 8.60633 1.13309C8.61517 0.806719 8.73452 0.344789 8.69547 0L8.69105 0C8.68147 0.172395 8.62327 0.469297 8.61738 0.62843C8.62254 0.433197 8.6277 0.23649 8.63285 0.0390466C8.59307 0.0699892 8.55402 0.105352 8.51497 0.142188C8.47731 0.288028 8.45509 0.437422 8.44867 0.587909C8.44867 0.458244 8.4553 0.327844 8.45825 0.197443C8.36189 0.301302 8.27395 0.412652 8.19523 0.530444C8.01326 0.993847 7.7473 1.43809 7.74067 1.68858C7.61248 3.71901 7.51818 5.75386 7.49902 7.77765Z" fill="url(#paint1_linear_315_43)" fill-opacity="0.8"/>
<path d="M24.1687 21.4161V9.58654H30.6919C31.2777 9.58654 31.796 9.71611 32.2466 9.97523C32.7086 10.2344 33.0691 10.5892 33.3282 11.0399C33.5986 11.4905 33.7338 12.0144 33.7338 12.6115C33.7338 13.0059 33.6493 13.3833 33.4803 13.7438C33.3226 14.1043 33.1029 14.4198 32.8212 14.6902C32.5396 14.9493 32.2128 15.1521 31.8411 15.2985C32.2692 15.4225 32.6466 15.6309 32.9733 15.9238C33.3113 16.2167 33.5761 16.566 33.7676 16.9716C33.9591 17.3772 34.0549 17.8109 34.0549 18.2728C34.0549 18.8812 33.914 19.422 33.6324 19.8952C33.362 20.3684 32.9846 20.7402 32.5001 21.0106C32.0269 21.2809 31.4805 21.4161 30.8609 21.4161H24.1687ZM26.1797 19.6248H30.3201C30.6581 19.6248 30.9566 19.5516 31.2158 19.4051C31.4749 19.2474 31.6721 19.039 31.8073 18.7798C31.9537 18.5094 32.0269 18.2278 32.0269 17.9349C32.0269 17.6307 31.9537 17.3546 31.8073 17.1068C31.6608 16.8477 31.458 16.6392 31.1989 16.4815C30.9397 16.3238 30.6356 16.2449 30.2863 16.2449H26.1797V19.6248ZM26.1797 14.5381H30.0666C30.3821 14.5381 30.6637 14.4648 30.9116 14.3184C31.1707 14.1719 31.3679 13.9804 31.5031 13.7438C31.6495 13.4959 31.7228 13.2312 31.7228 12.9495C31.7228 12.6566 31.6552 12.3918 31.52 12.1553C31.3848 11.9187 31.1932 11.7271 30.9454 11.5807C30.7088 11.4342 30.4328 11.361 30.1173 11.361H26.1797V14.5381ZM35.9175 21.4161V12.7974H37.8609V21.4161H35.9175ZM36.8808 11.5976C36.5428 11.5976 36.2499 11.4736 36.002 11.2258C35.7541 10.9779 35.6302 10.685 35.6302 10.347C35.6302 10.009 35.7541 9.71611 36.002 9.46825C36.2499 9.22039 36.5428 9.09646 36.8808 9.09646C37.23 9.09646 37.523 9.22039 37.7595 9.46825C38.0074 9.71611 38.1313 10.009 38.1313 10.347C38.1313 10.685 38.0074 10.9779 37.7595 11.2258C37.523 11.4736 37.23 11.5976 36.8808 11.5976ZM41.4931 24.8467V23.1906H45.8194C46.1123 23.1906 46.3376 23.1004 46.4954 22.9202C46.6644 22.7399 46.7488 22.5146 46.7488 22.2442V20.0135H46.7319C46.4841 20.3177 46.2193 20.5824 45.9377 20.8078C45.656 21.0218 45.3349 21.1908 44.9744 21.3147C44.6252 21.4274 44.2365 21.4837 43.8083 21.4837C43.0197 21.4837 42.3156 21.2978 41.6959 20.9261C41.0763 20.5543 40.5862 20.036 40.2257 19.3713C39.8764 18.6953 39.7018 17.9236 39.7018 17.0561C39.7018 16.2111 39.8764 15.4563 40.2257 14.7916C40.5862 14.1156 41.0988 13.5804 41.7635 13.1861C42.4282 12.7918 43.2394 12.5946 44.197 12.5946C45.1096 12.5946 45.8982 12.7862 46.563 13.1692C47.2389 13.5523 47.7628 14.0931 48.1346 14.7916C48.5064 15.4788 48.6923 16.2843 48.6923 17.2082V22.3287C48.6923 23.1061 48.467 23.7201 48.0163 24.1707C47.5657 24.6214 46.9516 24.8467 46.1743 24.8467H41.4931ZM44.1801 19.8276C44.6984 19.8276 45.1434 19.7093 45.5152 19.4727C45.8982 19.2248 46.1912 18.8981 46.394 18.4925C46.608 18.0757 46.715 17.6138 46.715 17.1068C46.715 16.566 46.6137 16.0816 46.4109 15.6534C46.2081 15.2253 45.9151 14.8873 45.5321 14.6395C45.1603 14.3803 44.7097 14.2508 44.1801 14.2508C43.6619 14.2508 43.2112 14.3803 42.8282 14.6395C42.4564 14.8873 42.1691 15.2253 41.9663 15.6534C41.7635 16.0703 41.6621 16.5435 41.6621 17.073C41.6621 17.58 41.7635 18.0419 41.9663 18.4587C42.1691 18.8756 42.4564 19.2079 42.8282 19.4558C43.2112 19.7037 43.6619 19.8276 44.1801 19.8276ZM55.4583 21.4161V19.6417H60.545C60.8717 19.6417 61.1534 19.5628 61.3899 19.4051C61.6378 19.2474 61.8293 19.0446 61.9645 18.7967C62.111 18.5376 62.1842 18.2672 62.1842 17.9856C62.1842 17.6814 62.1166 17.4053 61.9814 17.1575C61.8462 16.9096 61.6547 16.7125 61.4068 16.566C61.1703 16.4195 60.8942 16.3463 60.5788 16.3463H58.4663C57.8016 16.3463 57.2045 16.2111 56.675 15.9407C56.1568 15.6591 55.7455 15.2704 55.4414 14.7747C55.1372 14.279 54.9851 13.6931 54.9851 13.0171C54.9851 12.3411 55.1315 11.7497 55.4245 11.2427C55.7174 10.7244 56.1173 10.3189 56.6243 10.0259C57.1313 9.73301 57.7059 9.58654 58.3481 9.58654L63.4348 9.58654V11.361H58.5339C58.241 11.361 57.9763 11.4342 57.7397 11.5807C57.5031 11.7271 57.3172 11.9187 57.182 12.1553C57.0581 12.3918 56.9961 12.6453 56.9961 12.9157C56.9961 13.1974 57.0581 13.4565 57.182 13.6931C57.3172 13.9184 57.4974 14.1043 57.7228 14.2508C57.9594 14.386 58.2241 14.4536 58.517 14.4536H60.6802C61.4012 14.4536 62.0209 14.5944 62.5391 14.8761C63.0686 15.1577 63.4742 15.5464 63.7559 16.0421C64.0488 16.5378 64.1953 17.1068 64.1953 17.749C64.1953 18.5038 64.0432 19.1572 63.739 19.7093C63.446 20.2501 63.0405 20.6726 62.5222 20.9768C62.0152 21.2697 61.4406 21.4161 60.7985 21.4161H55.4583ZM66.0196 21.4161V9.07956H67.963V13.6593C68.3123 13.2875 68.7179 13.0171 69.1798 12.8481C69.6417 12.6791 70.1093 12.5946 70.5824 12.5946C71.3711 12.5946 72.0414 12.7636 72.5935 13.1016C73.1568 13.4283 73.5849 13.8846 73.8778 14.4705C74.1708 15.0451 74.3172 15.7041 74.3172 16.4477V21.4161H72.3907V16.4646C72.3907 16.0252 72.2836 15.6422 72.0696 15.3154C71.8668 14.9775 71.5964 14.7183 71.2584 14.5381C70.9317 14.3465 70.5655 14.2508 70.16 14.2508C69.7769 14.2508 69.4164 14.3409 69.0784 14.5212C68.7404 14.7014 68.47 14.9549 68.2672 15.2816C68.0644 15.6084 67.963 15.9802 67.963 16.397V21.4161H66.0196ZM80.1459 21.6189C79.3235 21.6189 78.6137 21.4161 78.0166 21.0106C77.4195 20.605 76.9576 20.0642 76.6308 19.3882C76.3154 18.701 76.1577 17.9461 76.1577 17.1237C76.1577 16.2674 76.3379 15.5013 76.6984 14.8254C77.0702 14.1381 77.5941 13.5973 78.2701 13.203C78.9573 12.7974 79.7741 12.5946 80.7205 12.5946C81.6556 12.5946 82.4499 12.7974 83.1033 13.203C83.768 13.5973 84.275 14.1381 84.6243 14.8254C84.9848 15.5013 85.1651 16.2562 85.1651 17.0899V21.4161H83.2216V19.8107H83.1878C83.0188 20.1261 82.7991 20.4247 82.5287 20.7064C82.2584 20.9768 81.926 21.1964 81.5317 21.3654C81.1374 21.5344 80.6754 21.6189 80.1459 21.6189ZM80.6698 19.9628C81.1768 19.9628 81.6162 19.8389 81.988 19.591C82.371 19.3319 82.6696 18.9883 82.8836 18.5601C83.0977 18.1208 83.1991 17.6307 83.1878 17.0899C83.1878 16.5491 83.0864 16.0703 82.8836 15.6534C82.6808 15.2253 82.3936 14.8873 82.0218 14.6395C81.65 14.3803 81.205 14.2508 80.6867 14.2508C80.1459 14.2508 79.684 14.3803 79.301 14.6395C78.9179 14.8873 78.625 15.2253 78.4222 15.6534C78.2194 16.0816 78.118 16.566 78.118 17.1068C78.118 17.6363 78.2194 18.1208 78.4222 18.5601C78.625 18.9883 78.9123 19.3319 79.2841 19.591C79.6671 19.8389 80.129 19.9628 80.6698 19.9628ZM87.4228 21.4161V15.2479C87.4228 14.4817 87.6369 13.8846 88.065 13.4565C88.5044 13.0171 89.1071 12.7974 89.8733 12.7974H91.9519V14.4536H90.2281C89.9578 14.4536 89.7437 14.5324 89.586 14.6902C89.4395 14.8479 89.3663 15.062 89.3663 15.3323V21.4161H87.4228ZM97.6597 21.4161C96.6908 21.4161 95.8402 21.2359 95.1079 20.8754C94.3868 20.5036 93.8235 19.9966 93.4179 19.3544C93.0123 18.701 92.8095 17.9518 92.8095 17.1068C92.8095 16.2167 92.9898 15.4337 93.3503 14.7578C93.7108 14.0818 94.2065 13.5523 94.8375 13.1692C95.4684 12.7862 96.195 12.5946 97.0175 12.5946C97.9413 12.5946 98.7018 12.7918 99.2989 13.1861C99.896 13.5804 100.335 14.11 100.617 14.7747C100.91 15.4394 101.056 16.183 101.056 17.0054C101.056 17.1181 101.051 17.2476 101.04 17.3941C101.028 17.5405 101.011 17.6532 100.989 17.7321H94.8713C94.9389 18.1827 95.1022 18.5601 95.3613 18.8643C95.6205 19.1572 95.9472 19.3826 96.3415 19.5403C96.7358 19.6868 97.1752 19.76 97.6597 19.76H99.9749V21.4161H97.6597ZM94.8544 16.4139H99.113C99.1017 16.1999 99.0679 15.9858 99.0116 15.7717C98.9666 15.5577 98.8877 15.3549 98.775 15.1634C98.6736 14.9718 98.5384 14.8085 98.3694 14.6733C98.2117 14.5268 98.0202 14.4141 97.7949 14.3353C97.5695 14.2452 97.3104 14.2001 97.0175 14.2001C96.6795 14.2001 96.3809 14.2677 96.1218 14.4029C95.8627 14.5268 95.643 14.6958 95.4627 14.9099C95.2825 15.1127 95.1416 15.3492 95.0403 15.6196C94.9501 15.8788 94.8882 16.1435 94.8544 16.4139Z" fill="#111714"/>
<defs>
<linearGradient id="paint0_linear_315_43" x1="2.69303" y1="0" x2="2.69303" y2="32.5917" gradientUnits="userSpaceOnUse">
<stop offset="0.25" stop-color="#1DBF73"/>
<stop offset="1" stop-color="#0071D7"/>
</linearGradient>
<linearGradient id="paint1_linear_315_43" x1="10.1904" y1="0" x2="10.1904" y2="32.5917" gradientUnits="userSpaceOnUse">
<stop offset="0.25" stop-color="#1DBF73"/>
<stop offset="1" stop-color="#0071D7"/>
</linearGradient>
</defs>
</svg>
